<!-- Generator: Adobe Illustrator 22.1.0, SVG Export Plug-In  -->
<svg version="1.1"
	 xmlns="http://www.w3.org/2000/svg" xmlns:xlink="http://www.w3.org/1999/xlink" xmlns:a="http://ns.adobe.com/AdobeSVGViewerExtensions/3.0/"
	 x="0px" y="0px" width="153.5px" height="51.5px" viewBox="0 0 153.5 51.5" enable-background="new 0 0 153.5 51.5"
	 xml:space="preserve">
<defs>
</defs>
<g>
	<g>
		<path fill="#FFFFFF" d="M27.7,51.5c-1,0-1.5-0.5-1.6-1.6v-1.6c0-0.7-0.2-1.1-0.5-1.1c-0.3,0-0.7,0.2-1.1,0.5
			c-2.9,2.5-6.2,3.8-9.9,3.8c-3.5,0-6.6-1.1-9.3-3.2c-2.7-2.1-4.4-4.9-5.2-8.4c-0.2-1.1,0.3-1.6,1.6-1.6c1,0,1.5,0.5,1.6,1.6
			c0.8,2.5,2.2,4.5,4.2,6c2.1,1.6,4.4,2.3,7,2.3c3.2,0,5.9-1.1,8.2-3.4c2.2-2.3,3.4-5,3.4-8.2c0-3.2-1.1-5.9-3.4-8.2
			c-2.2-2.2-5-3.4-8.2-3.4c-2.6,0-4.9,0.8-7,2.4c-2,1.6-3.4,3.6-4.1,6c-0.2,1.1-0.8,1.6-1.7,1.6c-1.3,0-1.9-0.5-1.6-1.6
			c0.7-3.4,2.4-6.2,5.1-8.3c2.7-2.2,5.8-3.3,9.3-3.3c3.8,0,6.9,1.1,9.3,3.3l0.5,0.5c0.4,0.4,0.8,0.6,1.1,0.6c0.3,0,0.5-0.4,0.5-1.1
			v-1.6c0.1-1.1,0.6-1.6,1.6-1.6c1,0,1.5,0.5,1.6,1.6v26.4C29.2,51,28.7,51.5,27.7,51.5z"/>
		<path fill="#FFFFFF" d="M35.3,23.2c0-0.6,0.3-1.1,0.8-1.4c0.3-0.2,0.6-0.2,0.9-0.2c0.6,0,1,0.3,1.4,0.9
			c7.8,13.3,11.4,19.4,12.3,20.9c0.6,1,1,1.4,1.2,1.4c0.2,0,0.6-0.5,1.1-1.4L65,22.5c0.4-0.6,0.9-0.9,1.4-0.9c0.3,0,0.6,0.1,0.9,0.2
			c0.6,0.3,0.8,0.8,0.8,1.4c0,0.3-0.1,0.6-0.2,1c-9.2,16.1-13.5,23.7-14.4,25.3c-0.8,1.3-1.3,2-1.5,2c-0.2,0-0.8-0.7-1.6-2l-15-25.3
			C35.3,23.9,35.3,23.6,35.3,23.2z"/>
		<path fill="#FFFFFF" d="M73.9,21.9c1,0,1.6,0.6,1.7,1.7v26.3c-0.1,1.1-0.6,1.7-1.7,1.7c-1.1,0-1.6-0.6-1.7-1.7V23.6
			C72.3,22.4,72.8,21.9,73.9,21.9z"/>
		<path fill="#FFFFFF" d="M108.2,51.5c-1,0-1.5-0.5-1.6-1.6v-1.6c0-0.7-0.2-1.1-0.5-1.1c-0.3,0-0.7,0.2-1.1,0.5
			c-2.9,2.5-6.2,3.8-9.9,3.8c-3.5,0-6.6-1.1-9.3-3.2c-2.7-2.1-4.4-4.9-5.2-8.4c-0.2-1.1,0.3-1.6,1.6-1.6c1,0,1.5,0.5,1.6,1.6
			c0.8,2.5,2.2,4.5,4.2,6c2.1,1.6,4.4,2.3,7,2.3c3.2,0,5.9-1.1,8.2-3.4c2.2-2.3,3.4-5,3.4-8.2c0-3.2-1.1-5.9-3.4-8.2
			c-2.2-2.2-5-3.4-8.2-3.4c-2.6,0-4.9,0.8-7,2.4c-2,1.6-3.4,3.6-4.1,6c-0.2,1.1-0.8,1.6-1.7,1.6c-1.3,0-1.9-0.5-1.6-1.6
			c0.7-3.4,2.4-6.2,5.1-8.3c2.7-2.2,5.8-3.3,9.3-3.3c3.8,0,6.9,1.1,9.3,3.3l0.5,0.5c0.4,0.4,0.8,0.6,1.1,0.6c0.3,0,0.5-0.4,0.5-1.1
			v-1.6c0.1-1.1,0.6-1.6,1.6-1.6c1,0,1.5,0.5,1.6,1.6v26.4C109.8,51,109.2,51.5,108.2,51.5z"/>
		<path fill="#FFFFFF" d="M142.9,51.5c-1,0-1.5-0.5-1.6-1.6V36.8c0-3.2-1.1-6-3.4-8.2c-2.2-2.3-5-3.4-8.2-3.4c-3.2,0-6,1.1-8.3,3.4
			c-2.3,2.3-3.5,5-3.5,8.2v13.1c-0.1,1.1-0.6,1.6-1.6,1.6c-1,0-1.5-0.5-1.6-1.6l-0.2-26.6c0.1-1.1,0.6-1.7,1.6-1.7
			c1,0,1.5,0.6,1.6,1.7l0.2,2.8c0.2,0.3,0.3,0.4,0.5,0.4c0.2,0,0.4-0.1,0.8-0.4c2.9-2.8,6.4-4.2,10.5-4.2c4.1,0,7.6,1.5,10.5,4.4
			c2.9,2.9,4.3,6.4,4.3,10.5v13.1C144.5,51,143.9,51.5,142.9,51.5z"/>
	</g>
	<g>
		<path fill="#FFFFFF" d="M69.4,2.9c0.5-0.2,1.1,0,1.3,0.5l0.5,1c0.2,0.5,0,1-0.5,1.3l-1.2,0.5c-0.5,0.2-0.7,0.8-0.5,1.3l0.5,1.1
			c0.2,0.5,0,1-0.5,1.3l-1.1,0.5c-0.5,0.2-1.1,0-1.3-0.5l-1.9-3.8c-0.2-0.5,0-1,0.5-1.3L69.4,2.9z"/>
		<path fill="#FFFFFF" d="M80.2,6.5c-0.2-0.5-0.8-0.7-1.3-0.5l-1.1,0.5c-0.5,0.2-0.7,0.8-0.5,1.3l0.5,1.1c0.2,0.5,0,1-0.5,1.3
			l-1.2,0.5c-0.5,0.2-0.7,0.8-0.5,1.3l0.5,1c0.2,0.5,0.8,0.7,1.3,0.5l4-1.8c0.5-0.2,0.7-0.8,0.5-1.3L80.2,6.5z"/>
		<path fill="#FFFFFF" d="M79.1,4.3c0.2,0.5,0,1-0.5,1.3l-1.1,0.5c-0.5,0.2-1.1,0-1.3-0.5l-0.5-1.1c-0.2-0.5-0.8-0.7-1.3-0.5
			l-1.2,0.5c-0.5,0.2-1.1,0-1.3-0.5l-0.5-1c-0.2-0.5,0-1,0.5-1.3l4-1.8c0.5-0.2,1.1,0,1.3,0.5L79.1,4.3z"/>
		<path fill="#FFFFFF" d="M75.2,14.4c0.5-0.2,0.7-0.8,0.5-1.3l-0.5-1c-0.2-0.5-0.8-0.7-1.3-0.5l-1.2,0.5c-0.5,0.2-1.1,0-1.3-0.5
			l-0.5-1.1c-0.2-0.5-0.8-0.7-1.3-0.5l-1.1,0.5c-0.5,0.2-0.7,0.8-0.5,1.3l1.9,3.8c0.2,0.5,0.8,0.7,1.3,0.5L75.2,14.4z"/>
	</g>
	<g>
		<path fill="#FFFFFF" d="M153.5,25.5c0,1.7-1.3,3-3.1,3c-1.7,0-3.1-1.3-3.1-3c0-1.7,1.4-3,3.1-3C152.2,22.5,153.5,23.9,153.5,25.5z
			 M148.1,25.5c0,1.3,1,2.4,2.3,2.4c1.3,0,2.3-1.1,2.3-2.4c0-1.3-1-2.4-2.3-2.4C149.1,23.1,148.1,24.2,148.1,25.5z M150,27.1h-0.7
			v-3c0.3-0.1,0.7-0.1,1.2-0.1c0.6,0,0.8,0.1,1,0.2c0.2,0.1,0.3,0.4,0.3,0.7c0,0.3-0.3,0.6-0.6,0.7v0c0.3,0.1,0.5,0.3,0.5,0.7
			c0.1,0.5,0.1,0.6,0.2,0.8h-0.8c-0.1-0.1-0.1-0.4-0.2-0.7c-0.1-0.3-0.2-0.5-0.6-0.5H150V27.1z M150,25.4h0.3c0.4,0,0.7-0.1,0.7-0.4
			c0-0.3-0.2-0.5-0.6-0.5c-0.2,0-0.3,0-0.4,0V25.4z"/>
	</g>
</g>
</svg>
