<?xml version="1.0" encoding="UTF-8" standalone="no"?>
<svg
   xmlns:dc="http://purl.org/dc/elements/1.1/"
   xmlns:cc="http://creativecommons.org/ns#"
   xmlns:rdf="http://www.w3.org/1999/02/22-rdf-syntax-ns#"
   xmlns:svg="http://www.w3.org/2000/svg"
   xmlns="http://www.w3.org/2000/svg"
   viewBox="0 0 816 1056"
   height="1056"
   width="816"
   xml:space="preserve"
   id="svg2"
   version="1.1"><metadata
     id="metadata8"><rdf:RDF><cc:Work
         rdf:about=""><dc:format>image/svg+xml</dc:format><dc:type
           rdf:resource="http://purl.org/dc/dcmitype/StillImage" /></cc:Work></rdf:RDF></metadata><defs
     id="defs6"><clipPath
       id="clipPath18"
       clipPathUnits="userSpaceOnUse"><path
         id="path16"
         d="M 0,792 H 612 V 0 H 0 Z" /></clipPath></defs><g
     transform="matrix(1.3333333,0,0,-1.3333333,0,1056)"
     id="g10"><g
       id="g12"><g
         clip-path="url(#clipPath18)"
         id="g14"><g
           transform="translate(207.2422,548.9268)"
           id="g20"><path
             id="path22"
             style="fill:#aaacae;fill-opacity:1;fill-rule:nonzero;stroke:none"
             d="m 0,0 c 12.681,5.564 27.985,0.425 33.967,-11.442 l 12.619,-25.095 c 5.976,-11.86 0.491,-26.147 -12.188,-31.725 L 5.195,-81.162 C -7.5,-86.693 -12.985,-100.992 -7.006,-112.86 L 6.79,-140.217 c 5.943,-11.881 0.49,-26.167 -12.25,-31.75 l -26.758,-11.803 c -12.678,-5.564 -27.985,-0.43 -33.984,11.457 l -48.165,95.604 c -5.967,11.861 -0.513,26.134 12.207,31.738 z" /></g><g
           transform="translate(479.0254,457.3232)"
           id="g24"><path
             id="path26"
             style="fill:#d2d4d5;fill-opacity:1;fill-rule:nonzero;stroke:none"
             d="M 0,0 C -5.988,11.907 -21.275,17.052 -33.953,11.449 L -60.729,-0.308 C -73.46,-5.904 -78.912,-20.19 -72.942,-32.052 l 13.776,-27.376 c 5.995,-11.867 0.529,-26.161 -12.188,-31.723 l -29.181,-12.869 c -12.756,-5.584 -18.191,-19.89 -12.24,-31.731 l 12.659,-25.114 c 5.983,-11.862 21.243,-17.014 33.933,-11.423 l 102.19,44.965 c 12.679,5.564 18.171,19.87 12.182,31.763 z" /></g><g
           transform="translate(450.9961,512.9717)"
           id="g28"><path
             id="path30"
             style="fill:#c4383b;fill-opacity:1;fill-rule:nonzero;stroke:none"
             d="m 0,0 c 5.995,-11.887 0.482,-26.14 -12.201,-31.744 l -26.802,-11.762 c -12.704,-5.61 -27.972,-0.472 -33.935,11.397 l -13.776,27.388 c -5.989,11.862 -21.315,17.001 -33.967,11.436 l -29.22,-12.861 c -12.717,-5.604 -27.977,-0.464 -33.987,11.416 l -12.606,25.088 c -5.983,11.861 -0.524,26.154 12.207,31.757 l 102.163,44.94 c 12.646,5.61 27.946,0.437 33.889,-11.436 z" /></g><g
           transform="translate(353.3955,258.8818)"
           id="g32"><path
             id="path34"
             style="fill:#2e4d7a;fill-opacity:1;fill-rule:nonzero;stroke:none"
             d="M 0,0 C 12.705,5.583 18.177,19.87 12.201,31.737 L -0.405,56.799 c -6.028,11.919 -21.296,17.072 -33.98,11.469 L -63.619,55.367 C -76.303,49.803 -91.583,54.93 -97.573,66.803 l -13.77,27.383 c -5.983,11.88 -21.23,17.013 -33.967,11.436 l -26.781,-11.796 c -12.711,-5.591 -18.184,-19.864 -12.179,-31.73 l 48.195,-95.625 c 5.96,-11.874 21.247,-17.02 33.899,-11.429 z" /></g><g
           transform="translate(508.1914,311.9531)"
           id="g36"><path
             id="path38"
             style="fill:#373535;fill-opacity:1;fill-rule:nonzero;stroke:none"
             d="M 0,0 H 0.756 C 1.638,0 2.353,0.295 2.353,1.01 2.353,1.639 1.89,2.059 0.882,2.059 0.462,2.059 0.168,2.018 0,1.975 Z m -0.042,-3.906 h -1.596 v 6.888 c 0.629,0.127 1.512,0.211 2.647,0.211 1.301,0 1.889,-0.211 2.393,-0.504 C 3.78,2.395 4.075,1.85 4.075,1.178 4.075,0.42 3.486,-0.168 2.646,-0.42 v -0.084 c 0.672,-0.252 1.05,-0.756 1.261,-1.68 0.209,-1.05 0.336,-1.47 0.504,-1.722 H 2.688 c -0.209,0.252 -0.335,0.883 -0.546,1.679 -0.125,0.758 -0.545,1.094 -1.428,1.094 h -0.756 z m -4.242,3.613 c 0,-3.066 2.267,-5.504 5.377,-5.504 3.023,0 5.25,2.438 5.25,5.461 0,3.066 -2.227,5.545 -5.293,5.545 -3.067,0 -5.334,-2.479 -5.334,-5.502 m 12.391,0 c 0,-3.906 -3.066,-6.973 -7.057,-6.973 -3.948,0 -7.1,3.067 -7.1,6.973 0,3.822 3.152,6.889 7.1,6.889 3.991,0 7.057,-3.067 7.057,-6.889" /></g></g></g></g></svg>